PathFileType  4	(X/Y/Z) C:\Users\antoi\Documents\MyRepositories\mobilecap\ResultsAnalysis
DataRate	CameraRate	NumFrames	NumMarkers	Units	OrigDataRate	OrigDataStartFrame	OrigNumFrames
100.0	100.0	6	51	mm	100.0	103	137
Frame#	Time	r_knee			r_shank_antsup			r_ankle			r_calc			r_5meta			r_toe			L_knee			L_shank_antsup			L_ankle			L_calc			L_5meta			L_toe			r_sh2			r_sh3			r_sh4			L_sh2			L_sh3			r_thigh1			r_thigh2			r_thigh3			r_thigh4			r_thigh5			L_thigh1			L_thigh2			L_thigh3			L_thigh4			r.ASIS			r.PSIS			L.ASIS			L.PSIS			C7			R_Shoulder			L_Shoulder			R_Sternum			L_Sternum			R_humerus			R_elbow_med			R_elbow_lat			R_forearm			R_wrist_radius			R_wrist_ulna			L_humerus			L_elbow_med			L_elbow_lat			L_forearm			L_wrist_radius			L_wrist_ulna			R_HJC			L_HJC			R_HJC_reg			L_HJC_reg			
		X1	Y1	Z1	X2	Y2	Z2	X3	Y3	Z3	X4	Y4	Z4	X5	Y5	Z5	X6	Y6	Z6	X7	Y7	Z7	X8	Y8	Z8	X9	Y9	Z9	X10	Y10	Z10	X11	Y11	Z11	X12	Y12	Z12	X13	Y13	Z13	X14	Y14	Z14	X15	Y15	Z15	X16	Y16	Z16	X17	Y17	Z17	X18	Y18	Z18	X19	Y19	Z19	X20	Y20	Z20	X21	Y21	Z21	X22	Y22	Z22	X23	Y23	Z23	X24	Y24	Z24	X25	Y25	Z25	X26	Y26	Z26	X27	Y27	Z27	X28	Y28	Z28	X29	Y29	Z29	X30	Y30	Z30	X31	Y31	Z31	X32	Y32	Z32	X33	Y33	Z33	X34	Y34	Z34	X35	Y35	Z35	X36	Y36	Z36	X37	Y37	Z37	X38	Y38	Z38	X39	Y39	Z39	X40	Y40	Z40	X41	Y41	Z41	X42	Y42	Z42	X43	Y43	Z43	X44	Y44	Z44	X45	Y45	Z45	X46	Y46	Z46	X47	Y47	Z47	X48	Y48	Z48	X49	Y49	Z49	X50	Y50	Z50	X51	Y51	Z51	

103	1.02000000	1236.98547	578.55368	-56.63595	1291.28413	493.96267	-61.75006	1279.62227	150.44863	-76.68872	1212.25891	84.76751	-126.03647	1407.27081	91.35449	-33.01335	1460.66600	133.79752	-92.44221	975.60754	539.45827	-358.06575	967.23533	445.55392	-371.91770	907.06127	121.32672	-286.49009	825.06135	74.13535	-233.75804	1017.18858	48.69330	-316.71675	1076.80693	73.91605	-251.75577	1292.35459	384.83113	-34.16221	1224.93466	501.24401	-24.47579	1210.13218	386.34789	-16.45308	877.78560	459.32398	-366.91783	875.93684	338.98271	-350.71017	1170.15544	895.29912	-49.43639	1217.33793	796.31894	-52.48588	1180.20501	751.72406	-16.77077	1072.11843	846.35206	-28.12363	1126.08584	743.29341	-34.67313	1092.82876	828.79543	-387.73469	1082.71325	690.34728	-361.68776	985.20950	828.90310	-411.40713	972.00184	694.34449	-392.49504	1109.52131	1084.89048	-91.12733	928.50507	1070.68550	-152.64591	1107.57155	1079.70612	-342.64729	924.64871	1078.15533	-262.64158	1016.67580	1634.55034	-220.30318	1058.46334	1560.50759	-50.16880	1045.20795	1560.22134	-386.67122	1116.57259	1520.73944	-188.20676	1112.68884	1518.35042	-245.92111	1027.37023	1402.48044	14.95822	913.89459	1222.86111	-41.86096	919.57665	1238.24307	41.57743	933.46005	1067.84217	77.27494	954.01665	971.50155	75.77421	911.84391	987.36112	92.72529	1042.77637	1439.32053	-472.48906	1043.81996	1193.29181	-426.63086	1062.03023	1214.14835	-505.83140	1126.28507	1173.44528	-523.59923	1245.43652	1036.95566	-523.29659	1212.50363	1017.38518	-541.82713	1046.98175	958.22323	-107.95874	1035.82628	962.46658	-314.57637	1067.15705	984.88635	-131.47032	1061.35149	996.13128	-297.02599	
104	1.03000000	1248.16560	574.71479	-56.39153	1305.51771	492.94774	-62.44548	1311.62965	148.68980	-78.15890	1246.85523	80.61650	-126.58691	1442.38301	95.10806	-36.76198	1493.07891	141.11784	-96.81079	982.09683	539.10731	-357.92734	972.20565	445.25943	-371.87400	907.66816	121.75488	-286.14971	825.21388	74.37965	-233.59732	1017.22431	48.64628	-316.81774	1076.96810	73.45796	-251.87400	1312.16579	383.99506	-35.01994	1239.38672	497.10592	-24.27857	1230.03400	381.57454	-16.31855	882.97364	460.28990	-366.50784	879.37711	340.12019	-350.14126	1182.24451	892.13823	-49.31389	1228.52195	792.69859	-52.25460	1191.22929	748.50138	-15.87584	1083.75884	844.02660	-27.28510	1137.04903	740.70897	-33.73447	1102.81463	827.21427	-387.89571	1091.14979	688.80042	-361.98358	995.17025	828.51158	-411.41060	980.38186	694.09257	-392.58669	1123.10973	1083.02374	-90.35594	941.97261	1068.91036	-151.48135	1120.39075	1078.06421	-342.08096	937.72641	1076.77359	-261.39867	1029.61258	1632.94534	-219.51580	1071.42625	1558.83266	-49.28589	1058.34809	1558.82423	-385.71201	1129.62576	1519.16475	-187.30052	1125.77109	1516.84923	-245.03141	1038.77789	1400.88826	15.70264	924.07504	1222.41465	-42.15496	929.09057	1237.70649	41.30999	940.34296	1067.18302	77.19067	959.75590	970.55535	75.81254	917.83413	987.04175	92.46955	1057.67699	1438.80093	-472.11635	1063.30728	1192.31688	-428.73599	1081.54953	1214.39835	-507.67046	1147.02463	1175.70495	-525.23181	1270.69264	1043.02549	-524.91670	1238.44875	1022.72203	-543.92575	1060.41415	956.39075	-107.26990	1048.63079	960.91523	-313.84567	1080.76171	982.72107	-130.94668	1074.36186	994.57197	-296.57747	
105	1.04000000	1258.93903	570.90005	-56.17903	1319.01386	491.76029	-63.00155	1341.31552	147.51542	-79.74971	1278.99876	77.27330	-127.11214	1474.88902	99.46616	-40.64487	1522.70098	148.42369	-101.51924	988.97820	538.73880	-357.79839	977.48086	444.93343	-371.85172	908.32025	122.27720	-285.80621	825.40627	74.68444	-233.41173	1017.26803	48.58008	-316.90422	1077.22967	73.00841	-252.03602	1330.60223	383.14413	-35.88305	1253.05000	493.03850	-24.27672	1248.62110	377.15139	-16.60397	888.52034	461.31176	-366.04221	883.00338	341.36181	-349.49564	1194.53100	889.11992	-49.00049	1239.90611	789.20719	-51.80011	1202.24338	745.27171	-15.17086	1095.62647	841.84263	-26.62945	1148.01481	738.25259	-33.05708	1112.93022	825.61126	-388.00916	1099.92784	687.25302	-362.30623	1005.28849	828.06155	-411.39758	989.12534	693.79753	-392.66208	1136.84717	1081.07583	-89.53948	955.54204	1067.11372	-150.21745	1133.31353	1076.37359	-341.48632	950.91887	1075.30354	-260.06632	1042.61324	1631.30642	-218.65527	1084.43667	1557.07815	-48.35167	1071.50716	1557.33381	-384.71869	1142.72722	1517.53561	-186.34551	1138.90518	1515.29229	-244.10635	1050.26274	1399.23824	16.52167	934.34984	1221.86984	-42.35733	938.73711	1237.08653	41.14540	947.70300	1066.47119	77.10993	966.05411	969.60106	75.84020	924.38666	986.62037	92.21752	1072.50037	1438.17405	-471.62644	1082.54279	1191.35292	-430.65905	1100.75390	1214.64478	-509.32959	1167.36636	1177.94011	-526.66259	1295.23696	1049.16066	-526.25552	1263.76739	1028.14573	-545.78505	1073.97788	954.49595	-106.52341	1061.52296	959.30380	-313.05237	1094.42323	980.56298	-130.32397	1087.44757	992.92012	-296.04746	
106	1.05000000	1269.45659	567.20925	-56.05586	1331.90531	490.40074	-63.46227	1368.42746	146.76368	-81.45770	1308.37328	74.45644	-127.68949	1504.59501	104.18304	-44.61618	1549.36801	155.39834	-106.42155	996.26166	538.36806	-357.64829	983.12765	444.59746	-371.81242	909.02928	122.93049	-285.47542	825.66086	75.10681	-233.20369	1017.32723	48.49733	-316.96666	1077.55555	72.56531	-252.22050	1347.74845	382.19379	-36.77485	1266.03819	489.07817	-24.47476	1265.94459	373.03453	-17.30423	894.49422	462.41271	-365.53049	886.91267	342.70017	-348.84731	1207.09099	886.29697	-48.46463	1251.55148	785.89702	-51.13443	1213.30958	742.12014	-14.68611	1107.75164	839.85922	-26.23788	1159.02467	735.97116	-32.67792	1123.19612	824.00089	-388.04599	1109.04597	685.73265	-362.59182	1015.57424	827.59214	-411.25562	998.21472	693.47960	-392.61955	1150.73822	1079.12482	-88.71648	969.21053	1065.33544	-148.87261	1146.34495	1074.68193	-340.89143	964.22970	1073.75464	-258.67110	1055.67896	1629.66419	-217.72998	1097.47158	1555.29890	-47.35758	1084.71007	1555.78256	-383.68555	1155.88273	1515.89294	-185.33096	1152.09764	1513.71286	-243.13274	1061.84452	1397.57752	17.41281	944.77111	1221.25556	-42.45837	948.57708	1236.40773	41.08523	955.56581	1065.71870	77.05482	972.92042	968.64686	75.86818	931.49655	986.10937	91.99124	1087.25695	1437.46613	-471.01182	1101.47891	1190.41370	-432.40966	1119.61785	1214.89581	-510.82124	1187.28433	1180.15070	-527.88734	1319.00975	1055.35934	-527.29292	1288.41541	1033.62871	-547.39899	1087.70384	952.60385	-105.73064	1074.52877	957.66523	-312.20825	1108.14878	978.49721	-129.61323	1100.62597	991.21373	-295.44474	
107	1.06000000	1279.92151	563.72557	-56.06355	1344.37082	488.86839	-63.93010	1392.77142	146.21248	-83.31490	1334.70421	71.93445	-128.46472	1531.26947	108.78356	-48.65138	1572.99024	161.63396	-111.35793	1003.94859	538.00739	-357.44369	989.20395	444.27283	-371.72309	909.82469	123.75440	-285.17859	826.00144	75.72785	-232.98390	1017.41564	48.40202	-317.00013	1077.89846	72.11767	-252.40058	1363.75032	381.07377	-37.75228	1278.56828	485.29257	-24.84801	1282.14118	369.22006	-18.32279	900.95425	463.61773	-364.96922	891.19438	344.13208	-348.24528	1219.96220	883.68669	-47.72892	1263.49573	782.79211	-50.30351	1224.51550	739.12948	-14.37945	1120.13452	838.09048	-26.10853	1170.15338	733.87939	-32.55904	1133.64943	822.40364	-387.99953	1118.50099	684.26570	-362.79613	1026.03450	827.14354	-410.87602	1007.60810	693.15400	-392.36515	1164.76833	1077.24402	-87.91693	982.97744	1063.60833	-147.48155	1159.49168	1073.02363	-340.31509	977.65670	1072.14086	-257.24801	1068.80962	1628.05218	-216.74738	1110.51488	1553.55466	-46.29798	1097.97485	1554.20979	-382.60540	1169.09547	1514.27559	-184.24762	1165.34812	1512.14160	-242.09816	1073.54224	1395.95569	18.37098	955.39419	1220.60551	-42.45306	958.66681	1235.69806	41.12432	963.94354	1064.94649	77.04571	980.37428	967.71026	75.91280	939.16897	985.53224	91.80884	1101.94851	1436.71069	-470.27133	1120.06771	1189.51499	-433.99631	1138.11239	1215.16115	-512.15558	1206.74431	1182.33765	-528.90974	1341.96609	1061.60875	-528.02173	1312.34593	1039.14243	-548.76824	1101.60408	950.77426	-104.90106	1087.67300	956.02543	-311.32420	1121.95254	976.58757	-128.82535	1113.90905	989.48755	-294.77561	
108	1.07000000	1290.55272	560.51418	-56.22896	1356.59107	487.16379	-64.52849	1414.20739	145.60025	-85.36770	1357.75287	69.56870	-129.59795	1554.67630	112.64156	-52.71994	1593.55730	166.65442	-116.16836	1012.03698	537.67169	-357.15419	995.74920	443.98154	-371.56638	910.74574	124.78823	-284.94031	826.45096	76.64700	-232.77284	1017.55227	48.29627	-317.00527	1078.22968	71.64977	-252.55658	1378.75657	379.73227	-38.88298	1290.88744	481.77366	-25.36332	1297.35718	365.73528	-19.51466	907.94195	464.95319	-364.34483	895.90808	345.66938	-347.69829	1233.14861	881.28836	-46.86086	1275.75971	779.90611	-49.38225	1235.96660	736.36908	-14.16455	1132.77062	836.51887	-26.16343	1181.50894	731.96942	-32.60816	1144.33006	820.84767	-387.87897	1128.29136	682.87564	-362.89866	1036.67384	826.74998	-410.18153	1017.25388	692.82894	-391.83308	1178.91135	1075.49557	-87.15222	996.84193	1061.95771	-146.08252	1172.75553	1071.41869	-339.76138	991.19126	1070.48546	-255.82811	1082.00737	1626.50575	-215.71100	1123.56008	1551.90171	-45.17104	1111.31206	1552.66004	-381.47222	1182.36473	1512.71929	-183.08893	1178.65062	1510.60653	-240.99338	1085.37319	1394.41721	19.38908	966.27101	1219.95132	-42.34289	969.05212	1234.98540	41.25347	972.84053	1064.18086	77.09696	988.44597	966.81508	75.99432	947.41712	984.91839	91.68399	1116.56927	1435.94821	-469.41223	1138.26334	1188.67407	-435.42274	1156.20428	1215.45059	-513.33478	1225.70724	1184.50157	-529.73907	1364.08714	1067.87463	-528.46016	1335.51484	1044.65662	-549.89826	1115.67100	949.05737	-104.03595	1100.97108	954.40437	-310.40362	1135.85219	974.86850	-127.96700	1127.30231	987.77297	-294.04228	
